<mxfile host="Electron" agent="Mozilla/5.0 (Windows NT 10.0; Win64; x64) AppleWebKit/537.36 (KHTML, like Gecko) draw.io/24.7.17 Chrome/128.0.6613.36 Electron/32.0.1 Safari/537.36" version="24.7.17">
  <diagram name="Page-1" id="CQr5DK0aoYuAY6h2gZTb">
    <mxGraphModel dx="1098" dy="988" grid="1" gridSize="10" guides="1" tooltips="1" connect="1" arrows="1" fold="1" page="1" pageScale="1" pageWidth="850" pageHeight="1100" math="0" shadow="0">
      <root>
        <mxCell id="0" />
        <mxCell id="1" parent="0" />
        <mxCell id="5HQABJq59sQDp8WWDIVe-3" value="" style="edgeStyle=orthogonalEdgeStyle;rounded=0;orthogonalLoop=1;jettySize=auto;html=1;" edge="1" parent="1" source="5HQABJq59sQDp8WWDIVe-1" target="5HQABJq59sQDp8WWDIVe-2">
          <mxGeometry relative="1" as="geometry" />
        </mxCell>
        <mxCell id="5HQABJq59sQDp8WWDIVe-1" value="START" style="ellipse;whiteSpace=wrap;html=1;" vertex="1" parent="1">
          <mxGeometry x="365" y="50" width="120" height="80" as="geometry" />
        </mxCell>
        <mxCell id="5HQABJq59sQDp8WWDIVe-5" value="" style="edgeStyle=orthogonalEdgeStyle;rounded=0;orthogonalLoop=1;jettySize=auto;html=1;" edge="1" parent="1" source="5HQABJq59sQDp8WWDIVe-2" target="5HQABJq59sQDp8WWDIVe-4">
          <mxGeometry relative="1" as="geometry" />
        </mxCell>
        <mxCell id="5HQABJq59sQDp8WWDIVe-2" value="Nháº­p a,b,total" style="shape=parallelogram;perimeter=parallelogramPerimeter;whiteSpace=wrap;html=1;fixedSize=1;" vertex="1" parent="1">
          <mxGeometry x="365" y="200" width="120" height="60" as="geometry" />
        </mxCell>
        <mxCell id="5HQABJq59sQDp8WWDIVe-7" value="" style="edgeStyle=orthogonalEdgeStyle;rounded=0;orthogonalLoop=1;jettySize=auto;html=1;" edge="1" parent="1" source="5HQABJq59sQDp8WWDIVe-4" target="5HQABJq59sQDp8WWDIVe-6">
          <mxGeometry relative="1" as="geometry" />
        </mxCell>
        <mxCell id="5HQABJq59sQDp8WWDIVe-4" value="total = a + b" style="rounded=0;whiteSpace=wrap;html=1;" vertex="1" parent="1">
          <mxGeometry x="365" y="330" width="120" height="60" as="geometry" />
        </mxCell>
        <mxCell id="5HQABJq59sQDp8WWDIVe-9" value="" style="edgeStyle=orthogonalEdgeStyle;rounded=0;orthogonalLoop=1;jettySize=auto;html=1;" edge="1" parent="1" source="5HQABJq59sQDp8WWDIVe-6">
          <mxGeometry relative="1" as="geometry">
            <mxPoint x="425" y="610" as="targetPoint" />
          </mxGeometry>
        </mxCell>
        <mxCell id="5HQABJq59sQDp8WWDIVe-6" value="total" style="shape=parallelogram;perimeter=parallelogramPerimeter;whiteSpace=wrap;html=1;fixedSize=1;" vertex="1" parent="1">
          <mxGeometry x="365" y="480" width="120" height="60" as="geometry" />
        </mxCell>
        <mxCell id="5HQABJq59sQDp8WWDIVe-10" value="END" style="ellipse;whiteSpace=wrap;html=1;" vertex="1" parent="1">
          <mxGeometry x="365" y="610" width="120" height="80" as="geometry" />
        </mxCell>
      </root>
    </mxGraphModel>
  </diagram>
</mxfile>
